<svg width="400" height="400" xmlns="http://www.w3.org/2000/svg">
 <g id="Layer_1">
  <title>Layer 1</title>
  <g id="svg_1">
   <g id="svg_2">
    <path id="svg_5" d="m291,95.608c-5.538,0.41 -14.993,2.739 -11.287,2.78c8.849,0.097 17.899,10.989 18.621,22.412c1.205,19.052 -4.764,32.168 -15.944,35.034c-20.096,5.152 -32.072,-29.318 -17.348,-49.934c1.775,-2.485 1.345,-2.397 -2.135,0.44c-11.662,9.505 -17.948,22.678 -17.875,37.46c0.05,10.3 0.181,10.459 10.568,12.838c36.627,8.39 54.142,-7.149 62.57,-55.512l0.256,-1.473l-4.513,-1.39c-5.436,-1.674 -7.572,-2.128 -11.513,-2.444c-5.93,-0.475 -7.459,-0.504 -11.4,-0.211m-191.2,2.82c-7.581,1.042 -14.671,3.343 -14.366,4.663c0.09,0.39 0.707,3.521 1.37,6.959c6.937,35.959 20.109,50.86 44.996,50.907c8.993,0.016 24.618,-3.044 25.868,-5.068c0.695,-1.123 1.229,-7.324 1.029,-11.933c-1.262,-29.002 -28.116,-49.761 -58.897,-45.528m28.052,3.557c18.958,8.351 18.246,49.899 -0.964,56.175c-14.431,4.716 -25.418,-9.27 -24.791,-31.56c0.498,-17.72 13.404,-30.056 25.755,-24.615m69.348,26.788c-8.294,1.186 -17.313,13.071 -26.122,34.427c-0.772,1.87 -1.978,4.75 -2.682,6.4c-0.704,1.65 -2.182,5.16 -3.284,7.8c-12.748,30.523 -21.487,44.079 -38.146,59.174c-28.401,25.734 -59.999,38.113 -99.294,38.899l-12.528,0.251l0.237,0.944c0.131,0.519 1.383,3.437 2.783,6.483c27.287,59.38 81.431,101.678 145.236,113.458c83.31,15.381 166.422,-22.642 209.419,-95.809c5.682,-9.668 14.885,-29.603 15.812,-34.252l0.25,-1.252l-19.141,-0.217c-10.527,-0.12 -21.21,-0.415 -23.74,-0.656c-47.847,-4.557 -76.626,-17.729 -93.558,-42.823c-8.689,-12.877 -12.598,-21.821 -21.854,-50c-4.399,-13.391 -10.268,-28.38 -12.863,-32.851c-3.833,-6.605 -12.986,-11.054 -20.525,-9.976m18.491,40.206c9.19,1.639 10.384,6.416 4.006,16.021c-2.313,3.483 -7.449,8.576 -10.936,10.844l-2.64,1.716l-0.249,5.32c-0.138,2.926 -0.545,7.39 -0.906,9.92c-0.951,6.66 -0.903,7.931 0.555,14.8c3.037,14.301 7.492,23.552 14.554,30.221c9.294,8.776 16.335,8.895 24.975,0.421c3.9,-3.824 4.443,-4.195 3.972,-2.712c-2.223,7.004 -13.638,15.67 -20.641,15.67c-9.868,0 -22.578,-12.958 -27.998,-28.545c-0.972,-2.793 -1.174,-3.115 -1.427,-2.269c-2.823,9.45 -12.465,22.044 -20.156,26.326c-9.28,5.167 -25.832,4.377 -32.589,-1.556c-2.824,-2.48 -0.459,-3.112 5.989,-1.6c9.103,2.135 13.539,1.838 19.552,-1.307c9.975,-5.219 17.183,-16.55 20.621,-32.416c1.269,-5.861 4.431,-32.613 3.883,-32.858c-5.387,-2.411 -15.57,-12.111 -18.271,-17.404c-3.034,-5.948 1.856,-9.876 13.415,-10.771c6.654,-0.516 20.986,-0.41 24.291,0.179" fill="#fbfbfb" fill-rule="evenodd"/>
    <path id="svg_4" d="m191.312,0.295c1.052,0.082 2.672,0.081 3.6,-0.003c0.928,-0.084 0.068,-0.151 -1.912,-0.15c-1.98,0.001 -2.74,0.07 -1.688,0.153m14.063,0.065c0.225,0.363 -1.027,15.596 -3.57,43.44c-0.763,8.36 -1.848,20.506 -2.41,26.991c-1.134,13.08 -1.274,13.609 -3.604,13.609c-2.113,0 -2.775,-0.986 -3.932,-5.854c-3.739,-15.729 -7.024,-38.003 -9.225,-62.546c-1.287,-14.346 -1.31,-14.763 -0.837,-15.001c1.304,-0.657 -15.917,1.579 -18.639,2.42c-0.505,0.156 -0.698,1.024 -0.909,4.089c-0.147,2.141 -0.623,7.312 -1.058,11.492c-0.435,4.18 -1.242,12.82 -1.793,19.2c-1.324,15.319 -4.408,43.623 -5.238,48.065c-1.583,8.481 -6.971,-1.905 -9.7,-18.698c-2.497,-15.367 -6.636,-42.302 -7.91,-51.481c-0.782,-5.631 -0.977,-5.228 3.147,-6.483c1.704,-0.518 3.026,-1.013 2.939,-1.101c-0.352,-0.352 -8.176,2.362 -17.836,6.188c-60.182,23.832 -106.749,79.174 -120.383,143.065c-8.033,37.645 -4.105,85.384 9.531,115.829l0.799,1.784l10.526,-0.107c42.456,-0.428 77.222,-14.579 105.76,-43.044c15.302,-15.264 21.722,-25.906 35.36,-58.617c16.3,-39.093 24.194,-48.262 38.422,-44.63c11.082,2.829 15.361,10.026 27.016,45.437c8.864,26.931 13.818,37.688 23.27,50.525c16.815,22.835 49.433,36.474 94.35,39.45c3.328,0.221 13.588,0.418 22.8,0.438l16.749,0.037l0.502,-0.988c1.651,-3.247 5.852,-20.066 7.674,-30.727c16.903,-98.904 -44.713,-197.649 -140.376,-224.965c-2.09,-0.597 -4.07,-1.168 -4.4,-1.269c-0.448,-0.137 -0.472,-0.091 -0.097,0.18c0.756,0.545 -1.51,44.958 -2.934,57.512c-0.805,7.098 -1.694,12.506 -2.226,13.539c-2.496,4.85 -7.272,2.817 -9.753,-4.152c-1.207,-3.388 -6.004,-36.938 -8.807,-61.587c-1.285,-11.302 -1.352,-10.364 0.717,-9.964c0.935,0.181 2.06,0.319 2.5,0.306c1.295,-0.038 -1.793,-0.671 -4.4,-0.903c-1.32,-0.116 -3.66,-0.391 -5.2,-0.61c-2.112,-0.3 -14.354,-1.197 -16.724,-1.225c-0.178,-0.002 -0.223,0.158 -0.101,0.356m-20.87,0.327c0.609,0.092 1.509,0.09 2,-0.005c0.492,-0.095 -0.005,-0.171 -1.105,-0.168c-1.1,0.003 -1.503,0.081 -0.895,0.173m-32.505,5.113c-1.87,0.508 -3.13,0.936 -2.8,0.952c0.33,0.015 2.22,-0.401 4.2,-0.926c1.98,-0.524 3.24,-0.953 2.8,-0.951c-0.44,0.001 -2.33,0.417 -4.2,0.925m94.8,0.03c2.09,0.518 4.07,0.929 4.4,0.912c0.33,-0.016 -1.11,-0.454 -3.2,-0.972c-2.09,-0.518 -4.07,-0.929 -4.4,-0.912c-0.33,0.016 1.11,0.454 3.2,0.972m57.28,89.965c7.455,0.982 14.904,3.312 14.564,4.556c-0.097,0.357 -0.295,1.549 -0.441,2.649c-1.174,8.905 -6.699,27.401 -10.096,33.8c-11.242,21.177 -30.809,27.179 -59.285,18.183l-3.113,-0.983l-0.552,-2.5c-3.018,-13.674 3.204,-32.064 14.425,-42.636c3.41,-3.213 8.215,-6.592 7.391,-5.197c-0.173,0.293 0.581,-0.296 1.676,-1.308c1.921,-1.777 5.617,-3.559 7.38,-3.559c0.44,0 1.198,-0.257 1.685,-0.571c3.754,-2.417 17.118,-3.651 26.366,-2.434m-187.632,2.39c25.387,4.433 42.545,23.715 42.548,47.815c0.002,10.642 0.019,10.618 -9.439,12.957c-30.203,7.471 -49.029,-2.238 -58.162,-29.994c-2.359,-7.169 -6.195,-23.303 -6.195,-26.058c0,-3.312 21.076,-6.496 31.248,-4.72m168.352,1.994c0,0.11 0.54,0.48 1.2,0.821c0.66,0.341 1.2,0.531 1.2,0.421c0,-0.11 -0.54,-0.48 -1.2,-0.821c-0.66,-0.341 -1.2,-0.531 -1.2,-0.421m-163.9,1.312c0.825,0.087 2.175,0.087 3,0c0.825,-0.086 0.15,-0.157 -1.5,-0.157c-1.65,0 -2.325,0.071 -1.5,0.157m170.3,3.509c1.195,1.21 2.263,2.2 2.373,2.2c0.11,0 -0.778,-0.99 -1.973,-2.2c-1.195,-1.21 -2.263,-2.2 -2.373,-2.2c-0.11,0 0.778,0.99 1.973,2.2m-160.8,-1.312c0,0.078 0.855,0.845 1.9,1.704c1.045,0.859 1.54,1.148 1.1,0.642c-0.778,-0.895 -3,-2.632 -3,-2.346m135.144,1.812c-1.151,1.389 -1.638,2.1 -1.44,2.1c0.11,0 0.682,-0.63 1.269,-1.4c1.09,-1.429 1.222,-1.968 0.171,-0.7m-130.745,2.8c0.523,0.715 1.014,1.3 1.09,1.3c0.304,0 -0.688,-1.5 -1.344,-2.033c-0.432,-0.351 -0.335,-0.071 0.254,0.733m159.631,0.7c0.494,0.88 1.07,1.78 1.28,2c0.599,0.628 -0.771,-1.906 -1.514,-2.8c-0.366,-0.44 -0.261,-0.08 0.234,0.8m-32.98,3.791c-0.903,2.256 -0.763,2.592 0.187,0.451c0.429,-0.967 0.708,-1.83 0.621,-1.917c-0.087,-0.087 -0.45,0.573 -0.808,1.466m-156.469,0.046c-0.352,0.681 -0.569,1.308 -0.482,1.395c0.087,0.087 0.457,-0.47 0.823,-1.237c0.822,-1.725 0.537,-1.857 -0.341,-0.158m32.253,-0.637c0,0.22 0.344,1.03 0.766,1.8c0.422,0.77 0.766,1.22 0.766,1c0,-0.22 -0.344,-1.03 -0.766,-1.8c-0.422,-0.77 -0.766,-1.22 -0.766,-1m160.459,6.6c0,0.77 0.082,1.085 0.183,0.7c0.1,-0.385 0.1,-1.015 0,-1.4c-0.101,-0.385 -0.183,-0.07 -0.183,0.7m0.453,5.8c0.001,2.2 0.068,3.049 0.149,1.887c0.081,-1.163 0.081,-2.963 -0.002,-4c-0.082,-1.038 -0.148,-0.087 -0.147,2.113m-156.853,1.4c0,0.77 0.082,1.085 0.183,0.7c0.1,-0.385 0.1,-1.015 0,-1.4c-0.101,-0.385 -0.183,-0.07 -0.183,0.7m-39.169,1.8c0.002,1.32 0.077,1.812 0.166,1.093c0.089,-0.719 0.087,-1.799 -0.004,-2.4c-0.091,-0.601 -0.164,-0.013 -0.162,1.307m195.577,3.6c0.004,0.88 0.086,1.193 0.182,0.695c0.096,-0.497 0.092,-1.217 -0.008,-1.6c-0.1,-0.382 -0.179,0.025 -0.174,0.905m-156.408,2.6c0,0.77 0.082,1.085 0.183,0.7c0.1,-0.385 0.1,-1.015 0,-1.4c-0.101,-0.385 -0.183,-0.07 -0.183,0.7m120.707,9.353c0,0.429 1.19,2.647 1.421,2.647c0.11,0 -0.098,-0.585 -0.462,-1.3c-0.742,-1.46 -0.959,-1.764 -0.959,-1.347m-157.572,0.739c-0.046,0.473 1.258,3.556 1.43,3.383c0.087,-0.087 -0.192,-0.95 -0.621,-1.917c-0.429,-0.967 -0.793,-1.627 -0.809,-1.466m34.037,0.925c-0.67,1.471 -0.542,1.785 0.182,0.448c0.339,-0.625 0.541,-1.211 0.449,-1.302c-0.091,-0.092 -0.375,0.293 -0.631,0.854m126.265,3.283c0.431,0.605 1.198,1.46 1.704,1.9c0.506,0.44 0.217,-0.055 -0.642,-1.1c-1.719,-2.092 -2.289,-2.521 -1.062,-0.8m25.455,2.6l-1.985,2.1l2.1,-1.985c1.951,-1.844 2.283,-2.215 1.985,-2.215c-0.063,0 -1.008,0.945 -2.1,2.1m-182.585,0.025c0,0.069 0.585,0.654 1.3,1.3l1.3,1.175l-1.175,-1.3c-1.095,-1.212 -1.425,-1.484 -1.425,-1.175m24.2,3.738c-1.712,1.568 -1.764,1.655 -0.362,0.6c1.481,-1.114 2.889,-2.487 2.511,-2.448c-0.082,0.009 -1.049,0.84 -2.149,1.848m138.432,-1.011c0.265,0.429 3.388,2.062 3.579,1.871c0.073,-0.073 -0.753,-0.605 -1.834,-1.182c-1.082,-0.577 -1.867,-0.887 -1.745,-0.689m7.273,2.631c0.497,0.096 1.217,0.092 1.6,-0.008c0.382,-0.1 -0.025,-0.179 -0.905,-0.174c-0.88,0.004 -1.193,0.086 -0.695,0.182m-159.03,2.177c1.231,0.346 5.947,0.355 6.808,0.012c0.375,-0.15 -1.211,-0.272 -3.525,-0.272c-2.315,0 -3.792,0.117 -3.283,0.26m84.025,10.237c1.705,0.075 4.495,0.075 6.2,0c1.705,-0.075 0.31,-0.136 -3.1,-0.136c-3.41,0 -4.805,0.061 -3.1,0.136m-13.1,0.509c-1.1,0.154 0.34,0.191 3.2,0.082c2.86,-0.109 5.275,-0.264 5.367,-0.343c0.279,-0.243 -6.433,-0.038 -8.567,0.261m22.633,-0.262c0.092,0.08 1.247,0.245 2.567,0.368c1.491,0.139 2.021,0.099 1.4,-0.105c-0.988,-0.323 -4.289,-0.542 -3.967,-0.263m-34.678,6.492c-0.245,0.977 0.5,4.442 0.875,4.068c0.095,-0.096 -0.028,-0.752 -0.274,-1.459c-0.247,-0.707 -0.342,-1.816 -0.212,-2.465c0.291,-1.453 -0.03,-1.572 -0.389,-0.144m45.36,2.774c-0.123,0.435 -0.346,1.15 -0.495,1.59c-0.149,0.44 0.022,0.294 0.38,-0.324c0.358,-0.618 0.581,-1.334 0.495,-1.59c-0.085,-0.256 -0.256,-0.11 -0.38,0.324m-1.715,3.79c-0.341,0.66 -0.531,1.2 -0.421,1.2c0.11,0 0.48,-0.54 0.821,-1.2c0.341,-0.66 0.531,-1.2 0.421,-1.2c-0.11,0 -0.48,0.54 -0.821,1.2m-6.413,8.5l-2.387,2.5l2.5,-2.387c1.375,-1.314 2.5,-2.439 2.5,-2.5c0,-0.296 -0.395,0.065 -2.613,2.387m-26.787,0.3c0.859,0.88 1.652,1.6 1.762,1.6c0.11,0 -0.503,-0.72 -1.362,-1.6c-0.859,-0.88 -1.652,-1.6 -1.762,-1.6c-0.11,0 0.503,0.72 1.362,1.6m22,3.835l-1.2,1.031l1.3,-0.86c0.715,-0.473 1.3,-0.938 1.3,-1.033c0,-0.3 -0.169,-0.195 -1.4,0.862m-4.035,2.713c-0.116,0.301 -0.152,1.516 -0.081,2.7l0.129,2.152l0.194,-2.701c0.194,-2.718 0.145,-3.16 -0.242,-2.151m-9.672,3.052c0,0.77 0.082,1.085 0.183,0.7c0.1,-0.385 0.1,-1.015 0,-1.4c-0.101,-0.385 -0.183,-0.07 -0.183,0.7m9.2,4.8c0,0.77 0.082,1.085 0.183,0.7c0.1,-0.385 0.1,-1.015 0,-1.4c-0.101,-0.385 -0.183,-0.07 -0.183,0.7m-12.443,23.05c-0.268,1.455 -0.411,2.722 -0.317,2.816c0.093,0.093 0.393,-1.016 0.667,-2.466c0.274,-1.45 0.416,-2.717 0.317,-2.816c-0.099,-0.099 -0.399,1.011 -0.667,2.466m13.206,4.15c0,0.33 0.155,0.96 0.344,1.4c0.217,0.504 0.344,0.578 0.344,0.2c0,-0.33 -0.155,-0.96 -0.344,-1.4c-0.217,-0.504 -0.344,-0.578 -0.344,-0.2m-5.628,9.692c-0.046,0.473 1.258,3.556 1.43,3.383c0.087,-0.087 -0.192,-0.95 -0.621,-1.917c-0.429,-0.967 -0.793,-1.627 -0.809,-1.466m-14.628,6.308c-0.341,0.66 -0.531,1.2 -0.421,1.2c0.11,0 0.48,-0.54 0.821,-1.2c0.341,-0.66 0.531,-1.2 0.421,-1.2c-0.11,0 -0.48,0.54 -0.821,1.2m8.6,0.4c-0.449,0.88 -0.726,1.6 -0.616,1.6c0.11,0 0.567,-0.72 1.016,-1.6c0.449,-0.88 0.726,-1.6 0.616,-1.6c-0.11,0 -0.567,0.72 -1.016,1.6m20.4,3.8c0.681,0.99 1.328,1.8 1.438,1.8c0.11,0 -0.357,-0.81 -1.038,-1.8c-0.681,-0.99 -1.328,-1.8 -1.438,-1.8c-0.11,0 0.357,0.81 1.038,1.8m-9.8,-0.2c0.341,0.66 0.711,1.2 0.821,1.2c0.11,0 -0.08,-0.54 -0.421,-1.2c-0.341,-0.66 -0.711,-1.2 -0.821,-1.2c-0.11,0 0.08,0.54 0.421,1.2m-14.2,2.4c-0.47,0.66 -0.764,1.2 -0.654,1.2c0.11,0 0.584,-0.54 1.054,-1.2c0.47,-0.66 0.764,-1.2 0.654,-1.2c-0.11,0 -0.584,0.54 -1.054,1.2m-11.212,1.9l-2.588,2.7l2.7,-2.588c2.508,-2.405 2.883,-2.812 2.588,-2.812c-0.061,0 -1.276,1.215 -2.7,2.7m67.59,-0.401c-1.207,1.313 -1.225,1.362 -0.15,0.395c0.675,-0.608 1.35,-0.983 1.5,-0.833c0.149,0.15 0.272,-0.028 0.272,-0.394c0,-0.904 -0.047,-0.88 -1.622,0.832m-28.378,1.101c1.195,1.21 2.263,2.2 2.373,2.2c0.11,0 -0.778,-0.99 -1.973,-2.2c-1.195,-1.21 -2.263,-2.2 -2.373,-2.2c-0.11,0 0.778,0.99 1.973,2.2m-33.8,4.1c-1.76,1.687 -2.66,2.684 -2,2.215c1.185,-0.842 5.747,-5.33 5.386,-5.299c-0.102,0.009 -1.626,1.397 -3.386,3.084m61,-1.9c-0.47,0.66 -0.764,1.2 -0.654,1.2c0.11,0 0.584,-0.54 1.054,-1.2c0.47,-0.66 0.764,-1.2 0.654,-1.2c-0.11,0 -0.584,0.54 -1.054,1.2m-33.4,2.8c1.528,1.54 2.869,2.8 2.979,2.8c0.11,0 -1.051,-1.26 -2.579,-2.8c-1.528,-1.54 -2.869,-2.8 -2.979,-2.8c-0.11,0 1.051,1.26 2.579,2.8m9.4,-2.254c0,0.11 0.54,0.584 1.2,1.054c0.66,0.47 1.2,0.764 1.2,0.654c0,-0.11 -0.54,-0.584 -1.2,-1.054c-0.66,-0.47 -1.2,-0.764 -1.2,-0.654m20.585,3.554l-1.985,2.1l2.1,-1.985c1.951,-1.844 2.283,-2.215 1.985,-2.215c-0.063,0 -1.008,0.945 -2.1,2.1m-96.585,0.9c0.746,0.77 1.447,1.4 1.557,1.4c0.11,0 -0.411,-0.63 -1.157,-1.4c-0.746,-0.77 -1.447,-1.4 -1.557,-1.4c-0.11,0 0.411,0.63 1.157,1.4m84.1,0.076c0.385,0.1 1.015,0.1 1.4,0c0.385,-0.101 0.07,-0.183 -0.7,-0.183c-0.77,0 -1.085,0.082 -0.7,0.183m4,0c0.385,0.1 1.015,0.1 1.4,0c0.385,-0.101 0.07,-0.183 -0.7,-0.183c-0.77,0 -1.085,0.082 -0.7,0.183m-76.1,0.534c1.81,0.333 6.277,0.516 5.967,0.244c-0.092,-0.08 -1.877,-0.242 -3.967,-0.36c-2.605,-0.148 -3.234,-0.112 -2,0.116m58.767,0.935c0.533,0.656 2.033,1.648 2.033,1.344c0,-0.076 -0.585,-0.567 -1.3,-1.09c-0.804,-0.589 -1.084,-0.686 -0.733,-0.254m-68.767,0.034c0,0.11 0.54,0.48 1.2,0.821c0.66,0.341 1.2,0.531 1.2,0.421c0,-0.11 -0.54,-0.48 -1.2,-0.821c-0.66,-0.341 -1.2,-0.531 -1.2,-0.421m29.9,0.45c-1.495,0.811 -1.404,1.149 0.1,0.371c0.66,-0.341 1.2,-0.706 1.2,-0.81c0,-0.258 -0.043,-0.243 -1.3,0.439m-14.988,3.266c1.052,0.082 2.672,0.081 3.6,-0.003c0.928,-0.084 0.068,-0.151 -1.912,-0.15c-1.98,0.001 -2.74,0.07 -1.688,0.153m61.688,0.495c0.764,0.338 3.314,0.567 2.967,0.266c-0.092,-0.08 -0.977,-0.252 -1.967,-0.383c-1.202,-0.159 -1.534,-0.12 -1,0.117m6,0.01c-1.078,0.274 -1.098,0.306 -0.2,0.313c0.55,0.004 1.45,-0.137 2,-0.313c1.344,-0.431 -0.108,-0.431 -1.8,0" fill="#b39cd4" fill-rule="evenodd"/>
    <path id="svg_3" d="m189.8,0.449c-8.907,0.432 -8.437,0.282 -8.281,2.635c1.702,25.509 6.106,57.652 10.34,75.462c1.157,4.868 1.819,5.854 3.932,5.854c2.33,0 2.47,-0.529 3.604,-13.609c0.562,-6.485 1.647,-18.631 2.41,-26.991c2.543,-27.844 3.795,-43.077 3.57,-43.44c-0.256,-0.415 -5.841,-0.383 -15.575,0.089m37.803,2.506c0.021,6.383 8.386,67.099 9.787,71.032c2.481,6.969 7.257,9.002 9.753,4.152c0.891,-1.731 2.491,-14.028 3.243,-24.939c0.641,-9.287 2.442,-45.705 2.269,-45.878c-0.544,-0.544 -13.652,-3.29 -24.155,-5.059c-0.698,-0.118 -0.899,0.038 -0.897,0.692m-66.203,0.927c-15.096,3.569 -25.132,6.517 -25.32,7.438c-0.142,0.691 0.774,7.272 3.491,25.08c1.824,11.957 2.528,16.442 4.853,30.927c2.716,16.926 8.142,27.478 9.736,18.938c0.83,-4.442 3.914,-32.746 5.238,-48.065c0.551,-6.38 1.358,-15.02 1.793,-19.2c0.881,-8.472 1.41,-15.424 1.168,-15.354c-0.087,0.026 -0.519,0.132 -0.959,0.236m111.24,95.907c-10.247,4.213 -16.912,24.934 -12.393,38.527c5.69,17.116 18.869,22.819 29.579,12.8c6.957,-6.508 10.306,-23.829 7.031,-36.36c-2.932,-11.217 -15.078,-18.724 -24.217,-14.967m-155.245,2.531c-11.863,4.101 -17.231,17.626 -14.243,35.88c2.943,17.981 18.621,26.239 29.522,15.55c18.077,-17.726 5.89,-58.751 -15.279,-51.43m78.405,66.73c-14.664,0.897 -19.427,3.337 -17.808,9.121c1.081,3.863 8.903,12.31 15.252,16.47c3.421,2.243 3.588,2.418 3.379,3.559c-0.12,0.66 -0.402,3.54 -0.626,6.4c-0.969,12.391 -2.651,25.392 -3.451,26.687c-0.124,0.2 -0.655,2.059 -1.181,4.131c-5.324,20.982 -21.66,33.735 -37.165,29.013c-1.54,-0.469 -4.24,-0.962 -6,-1.095l-3.2,-0.244l1.183,1.263c5.816,6.205 23.593,7.15 32.724,1.739c7.518,-4.454 14.051,-12.698 18.46,-23.294c0.687,-1.65 1.402,-3.243 1.589,-3.54c0.232,-0.367 1.001,1.108 2.41,4.619c11.16,27.809 31.111,34.731 44.803,15.543c2.913,-4.081 2.625,-4.277 -1.001,-0.683c-15.166,15.033 -34.736,-0.721 -40.421,-32.539c-1.068,-5.975 -1.069,-5.469 0.024,-15.976c0.456,-4.387 0.829,-9.107 0.829,-10.49c0,-2.431 0.043,-2.535 1.3,-3.186c8.562,-4.426 18.315,-18.425 16.095,-23.102c-1.762,-3.713 -11.808,-5.337 -27.195,-4.396" fill="#9c84c4" fill-rule="evenodd"/>
   </g>
  </g>
 </g>

</svg>